<svg id="Layer_1" data-name="Layer 1" xmlns="http://www.w3.org/2000/svg" viewBox="0 0 367.09 367.09"><path d="M306,182.11c-101.37,0-183.55,82.18-183.55,183.55S204.63,549.21,306,549.21,489.55,467,489.55,365.66,407.37,182.11,306,182.11Zm31.26,341.33a401.1,401.1,0,0,1-84.92-51.28c-27.33-21.73-50-40.18-66.73-72.92-8.52-16.73-21.43-42.05-16.74-75,1.43-10,6.28-40.58,33.71-62.6,26.75-21.47,56.89-20.28,66-19.49,7.45.65,25,2.38,41,14.45,12.67,9.5,20.35,24.62,19.26,22.7-.45-.8-7.91-10.21-21.55-17.89-16.81-9.46-33.92-8.83-41-8.48-7.48.37-31.66,1.92-52.28,20.87-20,18.34-23.91,41.33-25.23,49.75-4.44,28.49,6.11,51,14.45,68.11,6,12.28,17.23,31.8,54.8,67.18A693.63,693.63,0,0,0,337.26,523.44ZM422,410.55c-14.64,21-31,33.89-44.79,44.64a290.56,290.56,0,0,1-33.65,22.75q30-25,30.13-25h0c28.47-24,38.75-38.6,42.5-44.18,10.1-15,18.26-27.17,19.87-45.1.59-6.57,2.45-37.72-21.7-58.7-1.87-1.62-24.07-20.28-53.05-14.67-4.21.81-25.45,4.92-35.31,22-4.46,7.74-5.85,16.84-6.73,22.63a88.41,88.41,0,0,0-1,15.51,4.25,4.25,0,0,1-4.25,4.36H288.8a1.15,1.15,0,0,0-1.15,1.15V395a1.15,1.15,0,0,0,1.15,1.14h23.09a3.37,3.37,0,0,1,3.37,3.37v24.69a1.15,1.15,0,0,0,1.15,1.14h41a1.14,1.14,0,0,0,1.15-1.14V401.78a3.46,3.46,0,0,1,3.46-3.46h24.31a1.15,1.15,0,0,0,1.15-1.12l1-43.1a1.16,1.16,0,0,0-1.15-1.18H363.16a2.25,2.25,0,0,1-2.25-2.28l.41-25.82a1.16,1.16,0,0,0-1.08-1.16L330,321.74h32a1.14,1.14,0,0,1,1.15,1.15V347.8a1.14,1.14,0,0,0,1.15,1.15h27a2.12,2.12,0,0,1,2.12,2.13v50.56a2.18,2.18,0,0,1-2.18,2.19H367.36a1.14,1.14,0,0,0-1.15,1.15v25.33a2.88,2.88,0,0,1-2.88,2.88H311.25A3.3,3.3,0,0,1,308,429.9V407.26a1.15,1.15,0,0,0-1.15-1.15h-24a3.54,3.54,0,0,1-3.54-3.54V348.3a2.72,2.72,0,0,1,2.72-2.73l26.9.36a83.37,83.37,0,0,1,1.49-17.31,78.86,78.86,0,0,1,6.5-19.87c11.1-21.54,41.64-27.35,43.41-27.67,32-5.76,55.74,14,58.7,16.51,28.86,24.77,25.25,62.09,24.77,66.34C441.61,382.48,432.93,394.92,422,410.55Z" transform="translate(-122.45 -182.11)" style="fill:#fff"/></svg>